HIERARCHY
ROOT Hips
{
	OFFSET -0.179506 -22.333345 2.821913
	CHANNELS 6 Xposition Yposition Zposition Zrotation Yrotation Xrotation 
	JOINT LeftUpLeg
	{
		OFFSET 6.951974 -9.140623 -0.681533
		CHANNELS 3 Zrotation Yrotation Xrotation
		JOINT LeftLeg
		{
			OFFSET 3.427654 -37.519855 -0.449580
			CHANNELS 3 Zrotation Yrotation Xrotation
			JOINT LeftFoot
			{
				OFFSET -1.359570 -39.796059 -4.369333
				CHANNELS 3 Zrotation Yrotation Xrotation
				JOINT LeftToe
				{
					OFFSET 2.635814 -5.579078 11.928840
					CHANNELS 3 Zrotation Yrotation Xrotation
					End Site
					{
						OFFSET 0.000000 0.000000 0.000000
					}
				}
			}
		}
	}
	JOINT RightUpLeg
	{
		OFFSET -6.767048 -9.052170 -0.431982
		CHANNELS 3 Zrotation Yrotation Xrotation
		JOINT RightLeg
		{
			OFFSET -3.829005 -38.256897 -0.885003
			CHANNELS 3 Zrotation Yrotation Xrotation
			JOINT RightFoot
			{
				OFFSET 1.577377 -39.841461 -4.231180
				CHANNELS 3 Zrotation Yrotation Xrotation
				JOINT RightToe
				{
					OFFSET -2.537174 -4.814398 12.334795
					CHANNELS 3 Zrotation Yrotation Xrotation
					End Site
					{
						OFFSET 0.000000 0.000000 0.000000
					}
				}
			}
		}
	}
	JOINT Spine
	{
		OFFSET -0.253288 10.896323 -2.669631
		CHANNELS 3 Zrotation Yrotation Xrotation
		JOINT Spine1
		{
			OFFSET 0.548704 13.518043 0.109247
			CHANNELS 3 Zrotation Yrotation Xrotation
			JOINT Spine2
			{
				OFFSET 0.145701 5.292222 2.542457
				CHANNELS 3 Zrotation Yrotation Xrotation
				JOINT Neck
				{
					OFFSET -0.277840 21.387037 -4.285703
					CHANNELS 3 Zrotation Yrotation Xrotation
					JOINT Head
					{
						OFFSET 0.515184 6.496960 5.134897
						CHANNELS 3 Zrotation Yrotation Xrotation
						End Site
						{
							OFFSET 0.000000 0.000000 0.000000
						}
					}
				}
				JOINT LeftShoulder
				{
					OFFSET 7.884473 12.174932 -3.408961
					CHANNELS 3 Zrotation Yrotation Xrotation
					JOINT LeftArm
					{
						OFFSET 9.097692 3.046888 -0.886815
						CHANNELS 3 Zrotation Yrotation Xrotation
						JOINT LeftForeArm
						{
							OFFSET 25.961220 -1.277207 -2.745643
							CHANNELS 3 Zrotation Yrotation Xrotation
							JOINT LeftHand
							{
								OFFSET 24.923361 0.898606 -0.117091
								CHANNELS 3 Zrotation Yrotation Xrotation
								End Site
								{
									OFFSET 0.000000 0.000000 0.000000
								}
							}
						}
					}
				}
				JOINT RightShoulder
				{
					OFFSET -8.175920 11.883285 -3.861528
					CHANNELS 3 Zrotation Yrotation Xrotation
					JOINT RightArm
					{
						OFFSET -9.601238 3.255117 -0.914307
						CHANNELS 3 Zrotation Yrotation Xrotation
						JOINT RightForeArm
						{
							OFFSET -25.374195 -1.332924 -2.140099
							CHANNELS 3 Zrotation Yrotation Xrotation
							JOINT RightHand
							{
								OFFSET -25.529810 0.777228 -0.555919
								CHANNELS 3 Zrotation Yrotation Xrotation
								End Site
								{
									OFFSET 0.000000 0.000000 0.000000
								}
							}
						}
					}
				}
			}
		}
	}
}
MOTION
Frames: 10
Frame Time: 0.033333
23.968357 111.231750 -146.148193 176.370085 -26.809045 178.122575 2.759848 -3.526874 -8.789944 -7.958192 -1.963464 51.734660 1.729019 12.954682 -12.503974 1.102014 -0.950052 -0.218843 -1.310082 0.458342 -4.861400 0.419214 7.943848 12.637307 1.201693 -4.449878 -11.896984 0.854023 0.546049 -1.455816 3.203787 0.329354 14.782803 0.090216 -0.722455 -9.588084 1.947686 -0.540648 11.336730 -3.705666 1.796966 1.611982 -3.202362 4.336741 -2.829799 -14.794295 9.189999 -1.046206 -58.654733 -1.775206 8.231821 2.319068 -21.948083 -2.943419 0.539894 -7.424652 -25.511390 13.209115 -1.488022 -2.770798 58.409602 4.338320 14.577285 -2.204734 18.246823 1.659079 3.230275 4.088884 -10.571845 
24.152754 111.290665 -146.957352 174.212137 -29.766565 177.245873 4.256290 -3.828267 -18.512857 -8.450618 4.574481 66.388204 2.784129 12.193269 -12.810663 0.797567 -1.103042 -0.182993 -3.097802 -0.886371 -2.109391 0.432983 7.264784 13.182518 0.476367 -5.017875 -13.134897 0.754178 0.584984 -1.997436 3.634203 1.956771 17.521977 0.182884 -0.787483 -10.176877 1.926629 0.334461 11.606928 -4.413787 1.396437 1.914118 -3.380611 5.142567 -3.003039 -14.851781 10.142526 -2.124227 -54.782847 -3.658310 5.127747 9.294841 -31.901925 -12.809528 5.764298 -7.212570 -30.121413 14.291279 -1.560109 -2.481079 54.787497 5.692515 13.004612 -2.928640 19.445071 -0.971836 2.080311 3.774819 -8.081971 
23.985193 111.473022 -147.559982 171.600275 -33.667260 177.412085 5.951873 -3.826023 -27.765759 -8.415920 10.893168 77.535684 3.676765 11.481165 -14.089147 0.384293 -1.180143 -0.233627 -5.499299 -2.441296 0.477390 0.390948 6.448880 13.041433 0.528997 -6.177803 -13.791998 0.674829 0.630759 -2.476501 3.648863 3.599612 19.273402 0.579330 -1.138211 -10.428826 1.734920 1.018253 11.423496 -5.269576 1.074480 2.553829 -3.312709 6.467125 -2.749482 -14.577327 10.303654 -3.675192 -49.443545 -6.474157 1.931230 18.736139 -39.129055 -24.166028 10.006179 -6.224891 -32.606567 15.557053 -1.906832 -2.517149 49.519598 6.219914 11.203174 -3.549804 21.172622 -2.974604 1.492890 3.211164 -5.799912 
24.038328 111.935379 -148.649002 168.251633 -37.652003 178.472798 7.644414 -3.408913 -36.652635 -7.785908 16.950309 86.424985 4.365412 10.623822 -14.519097 -0.428584 -1.203474 -0.005783 -8.000398 -4.295104 3.482950 0.033539 5.099549 11.994531 0.968094 -7.054693 -13.356705 0.753235 0.621176 -2.960601 3.072336 5.412677 20.323462 0.936786 -1.780611 -10.273369 1.506347 1.466130 11.080154 -6.105676 0.347616 3.594403 -2.538946 7.506797 -2.588159 -13.821286 9.428963 -5.309266 -42.268121 -9.768558 -1.506049 29.184585 -43.842016 -35.923851 14.470768 -3.580173 -34.043925 15.989526 -2.244165 -2.599825 44.851899 6.086441 9.427535 -4.632730 22.303548 -4.531912 0.433446 2.223176 -4.722767 
24.244183 112.619720 -149.629227 164.053468 -41.080171 -179.604470 9.980272 -1.790231 -45.479433 -7.522228 22.005772 95.460532 5.147989 9.022800 -14.938478 -1.310827 -1.182981 0.208317 -11.243355 -7.103099 6.516496 -0.203189 4.188227 10.144042 1.586372 -7.417177 -11.207105 0.835213 0.603511 -3.390737 2.184028 7.405398 21.279547 1.338168 -2.611566 -10.192885 1.454914 1.831999 10.699424 -7.582860 -0.910853 4.971798 -2.137352 8.321680 -2.402250 -12.874932 8.085310 -6.731224 -34.316492 -11.816538 -5.694559 34.861141 -43.767524 -42.350687 18.867069 -0.649776 -31.109088 15.289863 -2.033668 -2.794019 41.075810 5.668927 7.203465 -5.833513 22.086475 -6.725957 -0.186813 0.339994 -5.388408 
24.322056 113.248871 -149.487198 160.271947 -43.581263 -177.774511 12.592267 1.328628 -53.433700 -7.159804 25.865150 103.508389 5.607009 7.362170 -14.540381 -1.980368 -1.131808 0.568993 -14.405304 -9.264985 8.772860 -0.286656 4.618919 8.798798 1.969151 -8.189418 -8.040189 0.890449 0.644830 -3.785668 1.468607 8.847206 22.773861 1.337320 -3.325667 -10.934795 1.346831 2.131540 10.707668 -8.946480 -1.135639 6.839085 -1.793821 8.733818 -2.306649 -10.557358 6.673707 -8.365031 -24.549824 -12.390538 -11.206166 38.652533 -43.234584 -47.461533 24.028482 1.442566 -28.678268 13.218672 -1.775409 -3.072434 37.235518 4.782504 3.916393 -8.466980 23.148260 -11.610475 -1.723066 -1.017128 -9.910371 
24.306093 113.746033 -149.274017 156.514090 -44.894454 -175.394267 14.638847 5.063536 -59.598845 -6.959393 28.875620 109.901500 6.249507 6.323515 -15.612870 -2.456500 -0.838128 0.948188 -17.752227 -11.042723 10.750192 -0.132923 6.187649 7.146478 3.453006 -9.022356 -4.210638 1.070743 0.481704 -3.960465 0.354399 10.176634 23.967465 0.954599 -4.227251 -12.167978 1.136300 2.216898 11.462322 -10.149545 -0.955165 9.455398 -1.637410 8.573467 -2.575063 -6.406026 5.495663 -10.155238 -12.917652 -10.798465 -17.087477 35.761126 -40.385364 -47.643200 28.339746 2.289497 -25.151271 9.293351 -1.846846 -4.093932 32.677628 4.050125 -0.728374 -14.422133 26.717435 -21.112703 -5.147294 -1.771313 -16.446411 
24.112408 113.932007 -149.052673 153.716891 -45.301294 -173.566317 15.988888 9.304837 -63.901934 -6.309549 30.950446 115.273018 6.132523 5.394855 -16.719644 -1.883366 -0.509674 0.927328 -20.949661 -12.461602 12.585014 0.357168 8.127787 6.044525 5.136725 -9.469046 -1.213526 1.070269 0.217517 -3.923211 -0.312993 11.089496 25.431013 0.716304 -5.142038 -13.390200 1.023017 2.395211 12.356061 -11.052933 -0.005970 11.780135 -1.749862 7.536158 -3.299624 -2.193011 4.561017 -11.222536 -3.333895 -6.537840 -21.101369 29.452870 -35.550597 -44.652455 28.895870 1.244914 -20.362518 4.941140 -1.784006 -5.532836 25.646847 2.855315 -6.660742 -23.572775 31.829916 -31.227408 -7.746600 -2.238634 -19.010156 
23.845791 113.858337 -148.774658 151.676657 -45.885330 -171.643946 16.345051 11.860126 -66.149553 -5.171913 31.752221 117.954002 5.814444 5.246460 -17.946139 -1.200411 -0.305862 0.718160 -23.172259 -13.248750 13.780733 0.483371 9.174840 5.292638 6.010733 -10.597477 -0.179038 1.088068 -0.015344 -3.897701 0.031828 11.522929 26.649172 0.522421 -5.978800 -13.765624 0.772689 2.660061 12.637074 -11.036064 1.053960 13.820828 -1.875949 7.466828 -4.639909 0.972054 4.143197 -11.754185 2.658308 -2.138976 -22.412158 23.388387 -31.199004 -40.206624 27.421254 -0.452753 -15.992868 0.770443 -1.773617 -6.479550 17.594070 1.822293 -12.287638 -31.463869 35.933004 -38.690133 -9.554300 -1.751772 -17.758119 
22.688715 113.678406 -148.956070 149.740516 -46.608771 -169.647448 16.247810 13.220024 -67.009009 -4.171341 31.585830 119.041648 5.582433 5.232514 -18.946142 -0.825244 -0.196496 0.422395 -24.593026 -13.205414 14.468516 0.095982 10.205866 5.351172 6.084462 -11.532568 -0.865372 1.268206 -0.253954 -3.784600 0.650984 11.395360 27.361508 0.580786 -6.775961 -13.859423 0.595342 2.848624 12.595223 -10.901160 2.173944 15.306802 -2.089685 7.016996 -5.572530 3.512174 3.607652 -11.273757 6.450705 2.062364 -22.085410 17.899708 -26.267311 -35.904985 26.013433 -0.878765 -14.192556 -2.753014 -1.531371 -6.919341 11.292799 1.443916 -17.879422 -39.362472 37.316625 -47.030649 -12.732629 -1.400232 -18.050431 
